PathFileType	4	(X/Y/Z)	/Users/itak/Documents/Research/Walk-IL/dataset/trc/00129_00007.trc
DataRate	CameraRate	NumFrames	NumMarkers	Units	OrigDataRate	OrigDataStartFrame	OrigNumFrames
100.000000	100.000000	4	53	mm	100.000000	360	721
Frame#	Time	RPSI			LPSI			L3			STRN			T10			C7			CLAV			RBAK			LBAK			LSHO			LUPA			LAEL			LAOL			LWTS			LWPS			LFRA			LIFD			LHPS			LHTS			RSHO			RUPA			RAEL			RAOL			RWTS			RWPS			RFRA			RIFD			RHTS			RHPS			RBHD			LFHD			RFHD			LBHD			LHIP			RHIP			RASI			LASI			LKNE			LTHI			LANK			LTIP			LTOE			LMT1			LMT5			LHEE			RKNE			RTHI			RANK			RTIP			RTOE			RMT1			RMT5			RHEE			
		X1	Y1	Z1	X2	Y2	Z2	X3	Y3	Z3	X4	Y4	Z4	X5	Y5	Z5	X6	Y6	Z6	X7	Y7	Z7	X8	Y8	Z8	X9	Y9	Z9	X10	Y10	Z10	X11	Y11	Z11	X12	Y12	Z12	X13	Y13	Z13	X14	Y14	Z14	X15	Y15	Z15	X16	Y16	Z16	X17	Y17	Z17	X18	Y18	Z18	X19	Y19	Z19	X20	Y20	Z20	X21	Y21	Z21	X22	Y22	Z22	X23	Y23	Z23	X24	Y24	Z24	X25	Y25	Z25	X26	Y26	Z26	X27	Y27	Z27	X28	Y28	Z28	X29	Y29	Z29	X30	Y30	Z30	X31	Y31	Z31	X32	Y32	Z32	X33	Y33	Z33	X34	Y34	Z34	X35	Y35	Z35	X36	Y36	Z36	X37	Y37	Z37	X38	Y38	Z38	X39	Y39	Z39	X40	Y40	Z40	X41	Y41	Z41	X42	Y42	Z42	X43	Y43	Z43	X44	Y44	Z44	X45	Y45	Z45	X46	Y46	Z46	X47	Y47	Z47	X48	Y48	Z48	X49	Y49	Z49	X50	Y50	Z50	X51	Y51	Z51	X52	Y52	Z52	X53	Y53	Z53	

361	3.6	-98.49845886230469	1104.75537109375	-344.1003112792969	-110.3983154296875	1119.78955078125	-477.7895812988281	-111.9704818725586	1150.453979492188	-413.9522094726562	117.2278518676758	1345.221557617188	-432.8487854003906	-137.9838256835938	1306.238891601562	-411.8374633789062	-89.64350891113281	1595.749877929688	-428.4490051269531	87.33245086669922	1481.5205078125	-430.4803466796875	-145.3964538574219	1411.831909179688	-340.7033386230469	-103.0167465209961	1578.035278320312	-529.9547729492188	-20.24025917053223	1564.56982421875	-600.2035522460938	-38.12749481201172	1441.765380859375	-682.0443725585938	-0.301458865404129	1232.574584960938	-738.1253662109375	-60.30075836181641	1202.706176757812	-683.5087890625	143.5791015625	994.6345825195312	-738.1709594726562	65.41330718994141	957.4228515625	-765.8612060546875	33.84304428100586	1122.855346679688	-760.6517944335938	188.2185516357422	804.38330078125	-744.2133178710938	106.8355484008789	890.0319213867188	-779.4109497070312	173.4868469238281	912.354248046875	-764.0198974609375	-25.20710945129395	1569.426879882812	-249.9127502441406	-43.94121932983398	1496.401611328125	-187.0574951171875	-81.05122375488281	1205.20849609375	-169.6604156494141	-87.46077728271484	1205.521728515625	-265.8148498535156	42.38088226318359	952.7318725585938	-185.7616119384766	-32.47191619873047	940.9505004882812	-155.0173797607422	-63.48059844970703	1130.221557617188	-154.9481964111328	53.99843597412109	756.949951171875	-203.1610107421875	63.95151519775391	842.77099609375	-179.9758758544922	-2.67141580581665	839.0819091796875	-151.0463714599609	-39.4329719543457	1761.978149414062	-347.5625610351562	131.9779663085938	1827.6259765625	-470.671630859375	128.2923278808594	1819.978393554688	-341.5743408203125	-43.32245254516602	1773.906982421875	-483.8953857421875	-39.55583190917969	1037.589233398438	-602.9226684570312	46.85985565185547	1006.867004394531	-251.3318786621094	115.0023040771484	1083.7294921875	-313.1321716308594	79.57711029052734	1095.305541992188	-576.3130493164062	-39.76577377319336	533.3069458007812	-595.1194458007812	-57.41576766967773	681.7088623046875	-611.0396728515625	-185.7848358154297	37.71273803710938	-567.400390625	-158.7678833007812	291.9620361328125	-598.656494140625	53.327392578125	35.01741790771484	-567.6046142578125	-18.64751815795898	38.60231781005859	-514.2544555664062	-71.14813995361328	35.46771621704102	-620.712890625	-239.1248474121094	39.38673400878906	-492.0719299316406	250.6281890869141	571.4485473632812	-351.8976440429688	140.0048370361328	823.1174926757812	-279.2247924804688	90.33837890625	68.02938842773438	-399.5231323242188	216.7014465332031	433.3108825683594	-351.8416748046875	314.308837890625	83.10594940185547	-437.1546630859375	262.7254943847656	63.93492126464844	-483.6439514160156	219.2839050292969	64.17198944091797	-370.2511291503906	36.57388305664062	78.46847534179688	-451.40087890625	
362	3.61	-91.20546722412109	1103.837890625	-346.4183349609375	-102.6215133666992	1118.815551757812	-480.1310424804688	-104.4207534790039	1149.460693359375	-416.3383483886719	124.8350677490234	1344.123046875	-434.1680603027344	-130.5248718261719	1305.232666015625	-414.3819274902344	-81.97177124023438	1594.708862304688	-430.476318359375	94.97956085205078	1480.443359375	-431.7159118652344	-138.3320770263672	1410.68310546875	-343.3221130371094	-94.85035705566406	1577.160278320312	-532.1235961914062	-11.6717529296875	1563.811157226562	-601.8823852539062	-28.61606216430664	1441.083129882812	-684.0040893554688	11.13079261779785	1232.092407226562	-739.923095703125	-49.56353378295898	1201.762817382812	-686.02734375	157.626220703125	995.8140869140625	-738.3217163085938	80.32514190673828	957.677490234375	-766.852294921875	46.62562942504883	1122.724609375	-762.0805053710938	205.1607666015625	806.7172241210938	-743.9034423828125	122.7213439941406	890.805908203125	-779.8863525390625	188.8366546630859	913.9127197265625	-763.7753295898438	-18.62040710449219	1568.076416015625	-251.6302337646484	-37.65862655639648	1494.90185546875	-189.0198822021484	-75.322509765625	1203.72802734375	-172.8028411865234	-80.83195495605469	1204.262573242188	-269.05517578125	47.67098999023438	951.0059204101562	-188.2462005615234	-27.53633117675781	939.337890625	-158.2640838623047	-58.05425262451172	1128.686279296875	-158.1015319824219	59.03924179077148	755.2333374023438	-205.9310760498047	68.96138000488281	840.975830078125	-182.4793548583984	2.007348537445068	837.3908081054688	-154.2532806396484	-32.248779296875	1760.871337890625	-349.278564453125	140.5031127929688	1826.385864257812	-470.4429626464844	135.4619445800781	1818.456787109375	-341.3708190917969	-34.7765998840332	1773.06884765625	-485.5547790527344	-31.53422355651855	1036.435668945312	-604.8712768554688	53.72966766357422	1005.9482421875	-253.0633544921875	122.2088317871094	1082.664184570312	-314.5718994140625	87.62097930908203	1094.053466796875	-577.8910522460938	-36.03310775756836	532.4893188476562	-595.7037353515625	-52.00808715820312	680.9338989257812	-611.946533203125	-185.6738433837891	38.01564025878906	-567.2490844726562	-157.0513763427734	292.0489501953125	-598.9721069335938	53.35138702392578	34.9492301940918	-567.711181640625	-18.53194046020508	38.64577865600586	-514.2744140625	-71.0711669921875	35.48283767700195	-620.6652221679688	-239.1048583984375	39.93087005615234	-491.9296569824219	257.1037902832031	570.1778564453125	-350.14306640625	146.2856750488281	822.0897216796875	-279.0550842285156	119.6732559204102	61.52590560913086	-406.8579711914062	227.9573211669922	431.1253356933594	-351.887451171875	343.8356323242188	86.18639373779297	-436.6753234863281	294.6900634765625	65.16109466552734	-484.8839721679688	247.3777770996094	62.84549331665039	-373.2498474121094	67.22126770019531	70.32973480224609	-460.577392578125	
363	3.62	-83.77168273925781	1102.847534179688	-348.6171264648438	-94.73074340820312	1117.789794921875	-482.3381958007812	-96.71428680419922	1148.381103515625	-418.5790405273438	132.537353515625	1342.9541015625	-435.3897094726562	-122.9561767578125	1304.12890625	-416.7470397949219	-74.25595092773438	1593.578247070312	-432.3364868164062	102.7037124633789	1479.2958984375	-432.8572692871094	-131.1336669921875	1409.444213867188	-345.7434997558594	-86.67926788330078	1576.199462890625	-534.1072998046875	-3.132982015609741	1562.965576171875	-603.4092407226562	-19.18459510803223	1440.302856445312	-685.7603759765625	22.39393997192383	1231.507080078125	-741.4747314453125	-38.94939041137695	1200.746215820312	-688.2269897460938	171.4210815429688	996.8880004882812	-738.2412719726562	94.98399353027344	957.84765625	-767.5006713867188	59.20020294189453	1122.478881835938	-763.2332763671875	221.8744964599609	809.0636596679688	-743.2752075195312	138.3135375976562	891.4671020507812	-779.9984130859375	203.8865814208984	915.3383178710938	-763.24853515625	-11.89042568206787	1566.646240234375	-253.2118530273438	-31.18555450439453	1493.322265625	-190.8327331542969	-69.35999298095703	1202.16845703125	-175.8040771484375	-74.02910614013672	1202.942504882812	-272.1441345214844	53.10822677612305	949.16650390625	-190.7302398681641	-22.41128540039062	937.64013671875	-161.4424743652344	-52.39209365844727	1127.071166992188	-161.1463317871094	64.14665985107422	753.4008178710938	-208.7541198730469	74.09941864013672	839.0584106445312	-185.0277099609375	6.859561920166016	835.6024780273438	-157.4368743896484	-25.03759956359863	1759.683959960938	-350.8857421875	149.0222778320312	1825.077758789062	-470.1060485839844	142.6557769775391	1816.882202148438	-341.0747680664062	-26.23460388183594	1772.156982421875	-487.0549926757812	-23.497802734375	1035.247924804688	-606.7305297851562	60.71981430053711	1004.865661621094	-254.7105407714844	129.5462646484375	1081.481201171875	-315.8934936523438	95.73951721191406	1092.752563476562	-579.3474731445312	-32.22124862670898	531.67236328125	-596.2848510742188	-46.55295944213867	680.1563110351562	-612.81787109375	-185.5602111816406	38.34624862670898	-567.085205078125	-155.3018798828125	292.1831665039062	-599.2822875976562	53.39905548095703	34.87218856811523	-567.8299560546875	-18.41678428649902	38.73279571533203	-514.3177490234375	-70.99203491210938	35.48958206176758	-620.6392822265625	-239.0651092529297	40.54204177856445	-491.7843933105469	262.8882141113281	568.4039306640625	-348.2957763671875	152.3287048339844	820.6930541992188	-278.8668823242188	149.0924072265625	55.73123550415039	-413.6456298828125	238.6010437011719	428.6893920898438	-351.7526550292969	372.78955078125	89.66291809082031	-435.3671569824219	326.2488403320312	66.98135375976562	-485.2419738769531	275.1458740234375	61.92269515991211	-375.5942993164062	98.13246154785156	62.85994338989258	-469.2351379394531	
364	3.63	-76.19617462158203	1101.77783203125	-350.6805419921875	-86.71703338623047	1116.71337890625	-484.3896484375	-88.85498809814453	1147.219848632812	-420.6572875976562	140.340576171875	1341.71337890625	-436.5057678222656	-115.2761077880859	1302.932861328125	-418.9215087890625	-66.49161529541016	1592.361206054688	-434.0296630859375	110.5118179321289	1478.075561523438	-433.8967895507812	-123.7936019897461	1408.114013671875	-347.9662475585938	-78.48861694335938	1575.153686523438	-535.9088134765625	5.404106140136719	1562.032104492188	-604.785400390625	-9.820589065551758	1439.415649414062	-687.3096313476562	33.49051666259766	1230.808837890625	-742.7852783203125	-28.42842102050781	1199.647827148438	-690.1109619140625	184.97314453125	997.851806640625	-737.9324340820312	109.3677062988281	957.9186401367188	-767.8201904296875	71.5654296875	1122.1064453125	-764.1182250976562	238.2644195556641	811.2998657226562	-742.311767578125	153.5975494384766	892.0020141601562	-779.7625732421875	218.6436309814453	916.6272583007812	-762.4493408203125	-5.009363174438477	1565.138549804688	-254.6521301269531	-24.52785301208496	1491.6650390625	-192.4967651367188	-63.16288757324219	1200.530395507812	-178.6568756103516	-67.05096435546875	1201.56396484375	-275.0741271972656	58.70121765136719	947.220703125	-193.1987762451172	-17.08954048156738	935.8621215820312	-164.542236328125	-46.4954719543457	1125.376098632812	-164.0718841552734	69.34540557861328	751.4595947265625	-211.6026916503906	79.37189483642578	837.0282592773438	-187.6016387939453	11.89077758789062	833.723876953125	-160.5825347900391	-17.79655456542969	1758.419189453125	-352.3721313476562	157.5298919677734	1823.7099609375	-469.6571044921875	149.8702087402344	1815.266479492188	-340.6865234375	-17.68555450439453	1771.167724609375	-488.3994445800781	-15.42358207702637	1034.03466796875	-608.4867553710938	67.85311126708984	1003.62158203125	-256.2766723632812	137.0343933105469	1080.185913085938	-317.0977783203125	103.9347076416016	1091.413696289062	-580.6873779296875	-28.3006534576416	530.8568115234375	-596.8814697265625	-41.02925109863281	679.3783569335938	-613.6659545898438	-185.4453735351562	38.713623046875	-566.9138793945312	-153.5011138916016	292.3705749511719	-599.599853515625	53.46834182739258	34.77838134765625	-567.9550170898438	-18.30630874633789	38.84524536132812	-514.3735961914062	-70.91742706298828	35.48571014404297	-620.6351928710938	-239.00830078125	41.23381805419922	-491.633544921875	268.0079345703125	566.1553955078125	-346.4236145019531	158.1472625732422	818.9249267578125	-278.6675109863281	178.4833831787109	50.70974731445312	-419.8790588378906	248.6117401123047	426.0404663085938	-351.4872131347656	401.0649719238281	93.5838623046875	-433.2280883789062	357.2766723632812	69.43741607666016	-484.7192993164062	302.4788208007812	61.43905258178711	-377.275390625	129.1890716552734	56.13284301757812	-477.3387756347656	
